<?xml version="1.0" encoding="UTF-8" standalone="no"?>
<!-- Created with Inkscape (http://www.inkscape.org/) -->

<svg
   xmlns:osb="http://www.openswatchbook.org/uri/2009/osb"
   xmlns:dc="http://purl.org/dc/elements/1.1/"
   xmlns:cc="http://creativecommons.org/ns#"
   xmlns:rdf="http://www.w3.org/1999/02/22-rdf-syntax-ns#"
   xmlns:svg="http://www.w3.org/2000/svg"
   xmlns="http://www.w3.org/2000/svg"
   xmlns:xlink="http://www.w3.org/1999/xlink"
   xmlns:sodipodi="http://sodipodi.sourceforge.net/DTD/sodipodi-0.dtd"
   xmlns:inkscape="http://www.inkscape.org/namespaces/inkscape"
   width="297mm"
   height="210mm"
   viewBox="0 0 1052.3622 744.09448"
   id="svg2"
   version="1.1"
   inkscape:version="0.91 r13725"
   sodipodi:docname="logo-vultur-final.svg">
  <defs
     id="defs4">
    <linearGradient
       id="linearGradient4303"
       inkscape:collect="always">
      <stop
         id="stop4305"
         offset="0"
         style="stop-color:#000042;stop-opacity:1" />
      <stop
         id="stop4307"
         offset="1"
         style="stop-color:#000000;stop-opacity:1" />
    </linearGradient>
    <linearGradient
       inkscape:collect="always"
       id="linearGradient6145">
      <stop
         style="stop-color:#00003b;stop-opacity:1"
         offset="0"
         id="stop6147" />
      <stop
         style="stop-color:#000017;stop-opacity:1"
         offset="1"
         id="stop6149" />
    </linearGradient>
    <linearGradient
       id="linearGradient6139"
       osb:paint="solid">
      <stop
         style="stop-color:#000020;stop-opacity:1;"
         offset="0"
         id="stop6141" />
    </linearGradient>
    <inkscape:path-effect
       effect="spiro"
       id="path-effect3862"
       is_visible="true" />
    <inkscape:path-effect
       effect="spiro"
       id="path-effect3353"
       is_visible="true" />
    <radialGradient
       inkscape:collect="always"
       xlink:href="#linearGradient4303"
       id="radialGradient6494"
       cx="805.79718"
       cy="365.04779"
       fx="805.79718"
       fy="365.04779"
       r="193.34987"
       gradientTransform="matrix(1,0,0,1.7555604,0,-275.81565)"
       gradientUnits="userSpaceOnUse" />
    <radialGradient
       inkscape:collect="always"
       xlink:href="#linearGradient4303"
       id="radialGradient6520"
       gradientUnits="userSpaceOnUse"
       gradientTransform="matrix(-1,0,0,1.7555604,1075.5944,-275.81565)"
       cx="805.79718"
       cy="365.04779"
       fx="805.79718"
       fy="365.04779"
       r="193.34987" />
    <linearGradient
       inkscape:collect="always"
       xlink:href="#linearGradient6145"
       id="linearGradient6544"
       x1="401.02994"
       y1="604.07605"
       x2="716.14447"
       y2="604.07605"
       gradientUnits="userSpaceOnUse" />
    <radialGradient
       inkscape:collect="always"
       xlink:href="#linearGradient4303"
       id="radialGradient6562"
       gradientUnits="userSpaceOnUse"
       gradientTransform="matrix(0.95914034,0,0,0.8020758,1.686315,129.83549)"
       cx="568.85992"
       cy="602.17139"
       fx="568.85992"
       fy="602.17139"
       r="157.55727" />
    <radialGradient
       inkscape:collect="always"
       xlink:href="#linearGradient4303"
       id="radialGradient6572"
       cx="558.46454"
       cy="604.04102"
       fx="558.46454"
       fy="604.04102"
       r="157.31329"
       gradientTransform="matrix(1,0,0,0.82028303,0,108.55642)"
       gradientUnits="userSpaceOnUse" />
    <linearGradient
       inkscape:collect="always"
       xlink:href="#linearGradient4303"
       id="linearGradient6586"
       x1="645.80096"
       y1="443.69406"
       x2="970.45959"
       y2="443.69406"
       gradientUnits="userSpaceOnUse" />
    <linearGradient
       inkscape:collect="always"
       xlink:href="#linearGradient4303"
       id="linearGradient6590"
       gradientUnits="userSpaceOnUse"
       x1="645.80096"
       y1="443.69406"
       x2="970.45959"
       y2="443.69406"
       gradientTransform="matrix(-1,0,0,1,1072.2606,0)" />
  </defs>
  <sodipodi:namedview
     id="base"
     pagecolor="#ffffff"
     bordercolor="#666666"
     borderopacity="1.0"
     inkscape:pageopacity="0.0"
     inkscape:pageshadow="2"
     inkscape:zoom="0.49497475"
     inkscape:cx="570.66257"
     inkscape:cy="363.26664"
     inkscape:document-units="px"
     inkscape:current-layer="layer2"
     showgrid="true"
     showguides="true"
     inkscape:guide-bbox="true"
     inkscape:window-width="1366"
     inkscape:window-height="697"
     inkscape:window-x="0"
     inkscape:window-y="0"
     inkscape:window-maximized="1">
    <inkscape:grid
       type="xygrid"
       id="grid3345" />
    <sodipodi:guide
       position="680.00001,720"
       orientation="0,1"
       id="guide6451" />
    <sodipodi:guide
       position="520.00001,340"
       orientation="1,0"
       id="guide6453" />
    <sodipodi:guide
       position="600.00001,40"
       orientation="0,1"
       id="guide6455" />
  </sodipodi:namedview>
  <metadata
     id="metadata7">
    <rdf:RDF>
      <cc:Work
         rdf:about="">
        <dc:format>image/svg+xml</dc:format>
        <dc:type
           rdf:resource="http://purl.org/dc/dcmitype/StillImage" />
        <dc:title></dc:title>
      </cc:Work>
    </rdf:RDF>
  </metadata>
  <g
     inkscape:label="Capa 1"
     inkscape:groupmode="layer"
     id="layer1"
     transform="translate(0,-308.26772)"
     style="display:none" />
  <g
     inkscape:groupmode="layer"
     id="layer2"
     inkscape:label="Capa 2"
     style="display:inline">
    <path
       style="fill:#a0a0a0;stroke:none;stroke-width:1px;stroke-linecap:butt;stroke-linejoin:miter;stroke-opacity:1"
       d=""
       id="path6163"
       inkscape:connector-curvature="0" />
    <path
       style="fill:#a0a0a0;stroke:none;stroke-width:1px;stroke-linecap:butt;stroke-linejoin:miter;stroke-opacity:1"
       d=""
       id="path6175"
       inkscape:connector-curvature="0" />
    <path
       style="fill:#a0a0a0;stroke:none;stroke-width:1px;stroke-linecap:butt;stroke-linejoin:miter;stroke-opacity:1"
       d=""
       id="path6177"
       inkscape:connector-curvature="0" />
    <g
       id="g7378">
      <path
         inkscape:export-ydpi="90"
         inkscape:export-xdpi="90"
         style="fill:#ffffff;fill-opacity:0.97254902;fill-rule:evenodd;stroke:#000000;stroke-width:1.06844699px;stroke-linecap:butt;stroke-linejoin:miter;stroke-opacity:1"
         d="m 656.80438,499.17371 c 100.9011,3.94602 195.25229,-97.45673 199.13454,-138.2116 l 11.95218,1.3604 9.11561,1.26913 9.82418,9.82253 -15.04579,-2.63024 10.16053,1.66553 4.49576,10.8993 -16.16863,-6.46301 9.8782,3.88645 6.88026,14.46091 -19.4113,-10.03358 9.84425,4.45908 10.80357,18.85844 -22.2512,-17.23127 10.11237,8.2787 7.11197,19.99674 -17.96601,-16.07381 6.27793,5.02695 7.17311,21.39543 -15.65632,-14.29225 8.19974,7.19309 c 24.951,66.22754 1.67839,6.08868 8.14139,23.96451 l -18.01867,-18.58233 7.85445,7.09799 0.91684,20.02947 -11.94039,-14.96348 7.14718,7.71072 3.31785,19.69493 -16.25337,-21.57811 5.09993,5.69232 0.24539,20.70001 -15.37298,-17.54401 6.72699,7.1835 0.9875,18.72769 -14.93129,-17.01584 7.59943,8.72887 -0.60364,19.34663 -18.06433,-21.14888 9.42842,9.93591 2.04502,18.35954 -20.49082,-21.83773 10.53283,10.93636 0.48442,24.33107 -20.82339,-28.01809 11.39809,15.00577 -6.81087,20.81351 -16.25971,-27.68269 7.56916,13.16351 -9.37297,19.73359 -12.62986,-25.58933 7.6073,15.53285 -7.73685,17.19587 -12.6567,-25.47968 6.81037,14.50956 -8.0914,21.20073 -11.76429,-31.06293 7.6023,17.42737 -9.8752,17.82551 -11.55426,-31.6965 8.27153,22.79001 c 0.53734,3.44382 -14.07968,13.30607 -11.25366,16.14775 l -7.88974,-33.78758 5.26599,20.67537 -10.78013,18.18714 -4.53794,-33.69676 2.8369,21.07036 -11.48167,18.75235 -2.18132,-34.67803 1.09529,20.85432 -10.00698,18.62613 -1.64744,-37.12467 0.16429,19.97984 -18.56556,25.88512 4.86967,-41.82846 -2.53586,22.80436 -15.15615,29.09993 c 5.38567,-33.4184 4.8146,-59.26884 -9.19604,-90.04229 z"
         id="path6596"
         inkscape:connector-curvature="0"
         sodipodi:nodetypes="cccccccccccccccccccccccccccccccccccccccccccccccccccccccccccccccccccccccccccccc" />
      <path
         inkscape:export-ydpi="90"
         inkscape:export-xdpi="90"
         sodipodi:nodetypes="cccccccccccccccccccccccccccccc"
         inkscape:connector-curvature="0"
         id="path6429"
         d="m 613.71429,486.09449 52.85714,-5 49.28571,-11.42857 c 36.4689,-17.65771 61.04614,-32.58011 85.98055,-60.57187 9.23542,-10.57053 15.89399,-21.85424 23.74816,-34.71359 C 868.94254,305.81473 846.12057,216.05932 824.5454,170.30605 805.27425,120.44412 774.55062,90.499909 737.28571,53.951633 L 693,26.094488 C 749.55409,40.721069 803.45746,67.802791 851.57143,96.808774 888.12252,163.8565 910.90961,238.40902 910.85714,313.95163 932.68504,263.91482 927.0496,206.24121 918,156.09449 l 27.85714,39.28571 c 17.19594,24.45942 30.40754,50.29488 40.31426,78.46804 -20.81904,62.08959 -41.63808,95.89688 -62.45711,136.53196 31.85359,-27.08972 54.48045,-48.01429 73.57142,-85.71428 3.24699,38.16946 0.23361,72.95391 -4.28571,110.71428 -32.54296,25.83088 -68.41222,49.16703 -108.57143,69.28572 C 915.61905,500.23454 951.80952,485.0398 983,471.09449 l -34.28571,69.28571 -17.14286,25.71429 -103.57143,-10 c 22.87265,5.42196 66.42,31.8297 89.28571,26.42857 l -22.85714,24.28572 -42.14286,37.85714 C 835.01414,630.21875 783.84594,618.85308 748,606.09449 l 85.05076,50.8876 c -29.80463,16.77579 -56.47714,38.77177 -91.42857,46.96954 L 658,653.06403 l -18.57143,10.8876 c 4.24122,-56.98915 21.00194,-140.03629 -25.71428,-177.85714 z"
         style="fill:url(#radialGradient6494);fill-opacity:1;fill-rule:evenodd;stroke:#000000;stroke-width:1px;stroke-linecap:butt;stroke-linejoin:miter;stroke-opacity:1" />
      <path
         style="fill:#d4bdb7;fill-opacity:1;fill-rule:evenodd;stroke:#000000;stroke-width:0.5;stroke-linecap:butt;stroke-linejoin:miter;stroke-miterlimit:4;stroke-dasharray:none;stroke-opacity:1"
         d="m 515.57658,322.83214 c -8.15406,0.66964 -12.4137,7.63533 -18.3208,11.1409 -3.2556,1.89597 -10.2223,11.83651 -11.57209,12.14104 -1.66571,0.37586 12.32373,-12.31425 10.93778,-11.88152 -4.89948,1.53017 -6.92471,3.89503 -10.83916,5.02553 -7.37825,2.13086 -10.88139,4.35334 -17.47682,4.85203 7.5475,0.69228 23.45661,-8.15465 28.40603,-10.47054 6.95068,-2.97049 11.456,-10.13125 18.95903,-10.69252 10.38775,-10.91125 9.19937,-33.83165 -7.82131,-36.30457 -10.9099,1.44833 -23.20366,9.72684 -33.93285,16.79294 -3.95756,2.6064 -7.70226,5.04784 -11.08611,6.9207 -14.43693,6.72706 -34.89051,3.66547 -46.16818,9.82548 -9.47253,5.17406 -13.06859,18.43481 4.67265,33.94957 4.40087,-4.0948 12.90026,-2.64775 22.77358,-3.67144 6.6895,-0.69355 14.08026,-3.42472 20.98278,-6.30657 4.10999,0.20794 3.63966,2.87802 1.9691,5.41806 -4.2608,2.95858 -6.40696,3.70053 -7.07639,6.97467 -0.28441,1.39186 -1.93116,3.20778 -1.57739,4.78979 0.90685,4.05527 5.66636,7.92772 11.3919,9.20878 10.25242,0.75569 15.94292,-5.26854 21.63983,-3.61717 5.69687,1.65141 4.85481,5.52063 4.85481,5.52063 -1.67821,0.49913 -18.70611,10.74196 -15.21436,10.13044 3.49181,-0.61154 6.41764,2.32376 5.98961,3.07457 3.02509,15.31769 -4.48382,14.65264 -1.51576,18.04899 2.96803,3.39634 7.54348,10.63383 10.67973,11.48624 3.13624,0.85241 6.66545,1.95424 12.1994,1.9948 -0.31469,0.12222 24.30878,2.06057 25.30974,2.57211 1.00093,0.51154 -21.80749,-2.49512 -22.35966,-1.20861 7.02662,14.67388 7.31669,36.93681 -0.003,38.7935 16.15748,10.76269 44.28487,7.22212 55.18252,1.13977 2.88016,-9.77403 -2.68707,-27.11873 -1.72711,-45.12753 1.1191,-20.99427 8.54436,-42.89108 9.08146,-54.74808 -5.28437,-19.31829 -28.19441,-36.36333 -48.2034,-31.3073 -2.77227,0.7005 10.31789,11.19975 8.09565,10.15041 -7.86159,-7.19405 -9.07612,-10.83137 -18.23164,-14.6151 z"
         id="path6433"
         inkscape:connector-curvature="0"
         sodipodi:nodetypes="ccsssccccscscsccssczczczzczcccscsccc"
         inkscape:export-xdpi="90"
         inkscape:export-ydpi="90" />
      <path
         style="fill:#efee10;fill-opacity:0.85144925;fill-rule:evenodd;stroke:#000000;stroke-width:0.5;stroke-linecap:butt;stroke-linejoin:miter;stroke-miterlimit:4;stroke-dasharray:none;stroke-opacity:1"
         d="m 484.65109,402.465 c 0,0 2.57425,-4.58461 2.83974,-7.71563 0.26551,-3.13106 0.65113,-8.46337 -1.18949,-10.27792 -1.84061,-1.81458 -5.96213,-1.84749 -5.96213,-1.84749 0,0 5.60047,-3.96685 7.80205,-5.40348 2.20155,-1.43669 6.08888,-3.70667 6.08888,-3.70667 2.30581,-1.46621 2.77638,-2.37122 0.64211,-4.523 -8.2039,-6.69119 -14.91196,2.87377 -24.18159,1.80824 -3.16217,-0.58474 -7.48789,-2.93644 -9.31501,-4.90254 -1.82713,-1.96615 -3.00137,-5.62781 -3.00137,-5.62781 0,0 1.01461,-4.15851 2.25128,-5.75985 1.23665,-1.60132 4.28414,-3.16435 5.41231,-4.42967 2.58478,-3.06686 2.96526,-4.7411 0.29418,-5.95816 -12.67071,4.67445 -17.44062,6.13734 -29.83497,7.12013 -1.8985,0.16962 -4.25351,-0.21388 -6.51284,0.0264 -1.9694,0.20944 -3.87744,1.02798 -5.20142,1.36434 -2.84293,0.72218 -6.8991,2.68011 -6.8991,2.68011 -9.72395,5.6685 -16.8787,17.15362 -17.9696,27.05602 -1.2507,11.32417 9.11348,19.61963 18.26933,23.24644 -2.34498,-4.53104 -3.76093,-8.07025 -2.10428,-12.99923 5.5974,-17.1377 18.75926,-25.29424 1.87814,-36.18679 15.40416,11.44194 6.27547,14.28457 1.0041,28.74931 0.4551,-1.83028 14.70498,-8.47272 21.96122,-10.64819 20.06215,8.30971 30.06153,4.35725 48.98936,-3.3826 -19.14668,7.92823 -31.3688,10.50721 -49.41491,3.47123 -8.61752,2.23748 -12.03605,4.64311 -18.78589,9.43265 -0.80419,4.94432 -0.16215,11.81837 3.04708,15.00174 4.9168,3.11259 8.93101,3.39764 10.81432,3.39448 5.93506,-0.0309 22.97677,-4.9155 29.24254,-6.05466 8.03076,-2.60725 14.29452,0.1223 19.83598,6.0726 z"
         id="path6435"
         inkscape:connector-curvature="0"
         sodipodi:nodetypes="czzczccczczcccsscccccccccccccc"
         inkscape:export-xdpi="90"
         inkscape:export-ydpi="90" />
      <path
         style="fill:#ffffff;fill-opacity:1;fill-rule:evenodd;stroke:#000000;stroke-width:0.5;stroke-linecap:butt;stroke-linejoin:miter;stroke-miterlimit:4;stroke-dasharray:none;stroke-opacity:1"
         d="m 490.63109,360.92729 c 3.33854,-2.25883 5.80763,-3.74897 8.79611,-4.34723 11.47382,8.96318 20.59236,6.03698 28.8779,-6.00832 -3.54033,-11.38032 -13.5634,-15.3193 -21.62396,-12.09872 -2.13891,0.85508 -5.46899,3.67569 -5.46899,3.67569 l 3.13896,-0.43931 c -2.93054,7.23557 -0.89576,0.83111 -6.59882,14.83948 z"
         id="path6437"
         inkscape:connector-curvature="0"
         sodipodi:nodetypes="cccccccc"
         inkscape:export-xdpi="90"
         inkscape:export-ydpi="90" />
      <path
         style="fill:#ffff34;fill-opacity:1;fill-rule:evenodd;stroke:#000000;stroke-width:0.40000001;stroke-linecap:butt;stroke-linejoin:miter;stroke-miterlimit:4;stroke-dasharray:none;stroke-opacity:1"
         d="m 510.99446,340.42146 c -2.97999,1.47642 -4.51933,3.57117 -4.77502,6.21688 -0.84545,4.42835 1.74437,9.9741 6.95482,10.63659 4.23569,0.20252 8.28774,-2.16067 9.29645,-6.31722 0.36463,-1.52706 0.57797,-2.94559 0.16481,-4.5459 -0.41304,-1.60033 -1.77994,-3.5551 -2.76654,-4.59982 -2.12579,-2.26175 -6.85757,-2.81672 -9.34967,-1.24777"
         id="path6439"
         inkscape:connector-curvature="0"
         sodipodi:nodetypes="cccczcc"
         inkscape:export-xdpi="90"
         inkscape:export-ydpi="90" />
      <path
         style="fill:#000000;fill-opacity:1;fill-rule:evenodd;stroke:#000000;stroke-width:0.30000001;stroke-linecap:butt;stroke-linejoin:miter;stroke-miterlimit:4;stroke-dasharray:none;stroke-opacity:1"
         d="m 512.14655,343.30613 c 5.26401,-1.81052 9.66023,9.07878 3.28184,10.32808 -6.21444,0.58835 -8.54589,-8.51755 -3.28184,-10.32808 z"
         id="path6441"
         inkscape:connector-curvature="0"
         sodipodi:nodetypes="zcz"
         inkscape:export-xdpi="90"
         inkscape:export-ydpi="90" />
      <path
         style="fill:#ffffff;fill-opacity:1;fill-rule:evenodd;stroke:#000000;stroke-width:0.2;stroke-linecap:butt;stroke-linejoin:miter;stroke-miterlimit:4;stroke-dasharray:none;stroke-opacity:1"
         d="m 510.51295,350.05074 c 2.11288,3.87916 8.00841,-0.49702 5.76242,-3.95302 -2.24591,-3.456 -7.87529,0.0738 -5.76242,3.95302 z"
         id="path6443"
         inkscape:connector-curvature="0"
         sodipodi:nodetypes="zzz"
         inkscape:export-xdpi="90"
         inkscape:export-ydpi="90" />
      <path
         style="fill:#150000;fill-opacity:0.99516913;fill-rule:evenodd;stroke:#000000;stroke-width:0.64450717px;stroke-linecap:butt;stroke-linejoin:miter;stroke-opacity:1"
         d="m 446.14975,352.44813 5.84381,-0.7616 c -0.32042,2.16274 -2.59907,4.53202 -5.42639,4.3157 -2.82733,-0.21632 -0.41742,-3.5541 -0.41742,-3.5541 z"
         id="path6445"
         inkscape:connector-curvature="0"
         sodipodi:nodetypes="cczc"
         inkscape:export-xdpi="90"
         inkscape:export-ydpi="90" />
      <path
         inkscape:export-ydpi="90"
         inkscape:export-xdpi="90"
         style="fill:url(#radialGradient6572);fill-opacity:1;fill-rule:evenodd;stroke:url(#linearGradient6544);stroke-width:2;stroke-linecap:round;stroke-linejoin:round;stroke-miterlimit:4;stroke-dasharray:none;stroke-opacity:1"
         d="m 602.25265,487.00899 c 43.95708,37.09001 31.49415,97.06179 31.51523,138.98985 l -4.04061,40 57.37309,31.4137 27.67767,14.54569 c -104.84049,28.50369 -222.66634,22.62147 -312.6269,-9.99967 21.67021,-15.72136 53.97171,-28.25333 63.63706,-47.57614 -37.54708,-57.22282 -37.30165,-133.50304 9.7995,-165.15229 l 22.2208,-13.23096 c -6.96973,6.71251 -13.66867,27.92673 -4.84899,25.95939 8.81968,-1.96733 20.80838,-24.49492 20.80838,-24.49492 -1.22508,8.4557 -5.53691,38.7805 10.95939,33.53553 9.77821,-9.17513 9.1894,-18.35025 12.97969,-27.52538 3.73244,10.71425 2.76797,41.60601 18.98985,33.98982 9.03619,-9.54089 -5.06167,-20.64808 -6.96954,-36.01016 6.70042,7.54323 26.78288,38.92864 35.65609,33.53554 8.87321,-5.3931 -19.26411,-28.92612 -17.92893,-31.26269 -2.66942,-6.27578 19.36049,19.05453 34.24238,26.717 14.8819,7.66246 12.57959,-16.85065 0.55584,-23.43401 z"
         id="path6512"
         inkscape:connector-curvature="0"
         sodipodi:nodetypes="ccccccccczccccczczcc" />
      <path
         inkscape:export-ydpi="90"
         inkscape:export-xdpi="90"
         sodipodi:nodetypes="cccccczccccczccc"
         inkscape:connector-curvature="0"
         id="path6482"
         d="m 614.69517,502.64004 c 24.02289,34.90947 18.25691,112.40225 8.65332,164.50286 25.99611,15.72449 51.31021,32.24759 80.32037,41.8341 -89.16584,19.74747 -202.57295,24.32185 -291.99594,-8.40503 23.24671,-15.46039 56.62388,-27.78429 58.17973,-46.78629 -36.49255,-77.29793 -33.70287,-124.62335 16.5847,-166.38096 -6.68495,6.60106 -2.34513,21.99388 6.11418,20.05921 8.45931,-1.93467 16.89181,-14.33334 16.89181,-14.33334 -1.17502,8.31531 0.40361,28.76426 16.22587,23.60637 9.37868,-9.0228 7.80378,-10.48431 11.4392,-19.5071 3.57993,10.53636 5.59868,33.47651 21.15774,25.98677 8.66697,-9.38249 3.29815,-8.49417 1.46823,-23.6012 6.42665,7.41799 21.31617,24.53757 29.82683,19.23401 8.51065,-5.30355 -7.04842,-14.70112 -5.76779,-16.99889 -2.56035,-6.17159 5.71228,5.28928 19.9861,12.82454 21.58528,7.78686 9.95713,-14.91024 10.91565,-12.03505 z"
         style="fill:#ffffff;fill-opacity:1;fill-rule:evenodd;stroke:#ffffff;stroke-width:0.97119302px;stroke-linecap:butt;stroke-linejoin:miter;stroke-opacity:1" />
      <path
         inkscape:export-ydpi="90"
         inkscape:export-xdpi="90"
         style="fill:url(#radialGradient6520);fill-opacity:1;fill-rule:evenodd;stroke:#000000;stroke-width:1px;stroke-linecap:butt;stroke-linejoin:miter;stroke-opacity:1"
         d="m 461.8801,486.09449 -52.85712,-5 -49.28571,-11.42857 C 323.26837,452.00821 298.69113,437.08581 273.75672,409.09405 264.5213,398.52352 257.86273,387.23981 250.00856,374.38046 206.65187,305.81473 229.47384,216.05932 251.04901,170.30605 270.32016,120.44412 301.04379,90.499909 338.3087,53.951633 L 382.59441,26.094488 C 326.04032,40.721069 272.13695,67.802791 224.02298,96.808774 187.47189,163.8565 164.6848,238.40902 164.73727,313.95163 142.90937,263.91482 148.54481,206.24121 157.59441,156.09449 l -27.85714,39.28571 c -17.19594,24.45942 -30.40756,50.29488 -40.31426,78.46804 20.81904,62.08959 41.63808,95.89688 62.45711,136.53196 -31.85359,-27.08972 -54.48041,-48.01429 -73.57141,-85.71428 -3.247,38.16946 -0.2336,72.95391 4.2857,110.71428 32.54296,25.83088 68.41222,49.16703 108.57143,69.28572 -31.19048,-4.43138 -67.38095,-19.62612 -98.57143,-33.57143 l 34.28571,69.28571 17.14286,25.71429 103.57143,-10 c -22.87265,5.42196 -66.42,31.8297 -89.28571,26.42857 l 22.85714,24.28572 42.14286,37.85714 c 17.27157,-14.44717 68.43977,-25.81284 104.28571,-38.57143 l -85.05076,50.8876 c 29.80463,16.77579 66.47714,38.77177 101.42857,46.96954 l 83.62219,-50.8876 25.71429,2.31617 c -23.41609,-34.61847 -39.24211,-130.18467 8.5714,-169.28571 z"
         id="path6518"
         inkscape:connector-curvature="0"
         sodipodi:nodetypes="cccccccccccccccccccccccccccccc" />
      <path
         inkscape:export-ydpi="90"
         inkscape:export-xdpi="90"
         sodipodi:nodetypes="ccczcccccccccccscccccccccscc"
         inkscape:connector-curvature="0"
         id="path6546"
         d="m 630.71429,491.95163 c 87.80231,-7.65045 136.00255,-26.68554 190.97656,-95.49827 62.42582,-98.75247 34.47917,-208.52565 -29.09661,-292.92981 0,0 -9.57965,-10.973278 -17.73237,-20.061156 -8.15272,-9.087878 -31.29044,-34.367906 -31.29044,-34.367906 l 100.71428,52.857142 c 27.47134,47.76829 40.76466,94.45339 53.64395,148.45892 l 11.35605,86.54108 18.51941,-53.20315 7.99013,-45.88505 -6.50954,-53.76894 L 980,273.3802 961.53757,317.45833 908.57143,429.09449 c 30.17944,-20.35539 58.37951,-44.66954 82.85714,-76.42857 -4.82829,50.11676 1.16499,69.58419 -4.72785,77.43581 -19.33155,25.75735 -73.35883,48.90893 -122.41501,81.13562 39.42228,2.09297 73.15105,-8.62444 105,-23.57143 L 930,556.95163 815.71429,549.80878 c 24.92179,24.46701 58.701,33.69506 89.28571,39.28571 l -55,45 -105.71429,-35 c -4.91643,17.43853 46.94885,38.72745 74.28572,57.85714 l -75,41.42857 c -0.5782,0.57821 -86.4873,-50.47326 -82.85714,-51.42857 l -13.57143,3.57143 C 662.06001,481.68002 633.26309,506.95476 630.71429,491.95163 Z"
         style="fill:#ffffff;fill-opacity:1;fill-rule:evenodd;stroke:#ffffff;stroke-width:1px;stroke-linecap:butt;stroke-linejoin:miter;stroke-opacity:1" />
      <path
         inkscape:export-ydpi="90"
         inkscape:export-xdpi="90"
         style="fill:#ffffff;fill-opacity:1;fill-rule:evenodd;stroke:#ffffff;stroke-width:1px;stroke-linecap:butt;stroke-linejoin:miter;stroke-opacity:1"
         d="m 445.50904,491.95163 c -87.80231,-7.65045 -136.00255,-26.68554 -190.97656,-95.49827 -62.42582,-98.75247 -34.47917,-208.52565 29.09661,-292.92981 0,0 9.57965,-10.973278 17.73237,-20.061156 8.15272,-9.087878 31.29044,-34.367906 31.29044,-34.367906 L 231.93762,101.95163 c -27.47134,47.76829 -40.76466,94.45339 -53.64395,148.45892 l -11.35605,86.54108 -18.51941,-53.20315 -7.99013,-45.88505 6.50954,-53.76894 -50.71429,89.28571 18.46243,44.07813 52.96614,111.63616 c -30.17944,-20.35539 -58.37951,-44.66954 -82.85714,-76.42857 4.82829,50.11676 -1.16499,69.58419 4.72785,77.43581 19.33155,25.75735 73.35883,48.90893 122.41501,81.13562 -39.42228,2.09297 -73.15105,-8.62444 -105,-23.57143 l 39.28571,69.28571 114.28571,-7.14285 c -24.92179,24.46701 -58.701,33.69506 -89.28571,39.28571 l 55,45 105.71429,-35 c 4.91643,17.43853 -46.94885,38.72745 -74.28572,57.85714 l 75,41.42857 c 0.5782,0.57821 79.11406,-51.71144 82.85714,-51.42857 l 27.20849,2.0562 c -36.99902,-66.99029 -13.18307,-133.45649 2.79151,-157.0562 z"
         id="path6548"
         inkscape:connector-curvature="0"
         sodipodi:nodetypes="ccczcccccccccccscccccccccscc" />
      <path
         inkscape:export-ydpi="90"
         inkscape:export-xdpi="90"
         style="fill:url(#radialGradient6562);fill-opacity:1;fill-rule:evenodd;stroke:#ffffff;stroke-width:0.97119302px;stroke-linecap:butt;stroke-linejoin:miter;stroke-opacity:1"
         d="m 614.8984,504.84236 c 24.0229,34.90947 14.52708,112.48891 4.92348,164.58952 l 50.7431,29.46358 25.83251,9.30417 c -81.99424,9.65813 -143.92656,12.44374 -184.04608,8.44411 -40.11952,-3.99962 -92.23563,-17.56342 -92.23563,-17.56342 18.45035,-7.67888 41.99652,-16.64611 54.60837,-46.78629 -31.25372,-61.15276 -44.54865,-113.20935 7.85479,-156.85014 -6.6849,6.60106 -4.53876,23.89163 3.92054,21.95696 8.4593,-1.93467 19.24394,-14.80252 19.24394,-14.80252 -1.1751,8.31531 2.54646,28.13663 18.36866,22.97874 9.3787,-9.0228 7.38543,-8.04559 11.02083,-17.06838 3.5799,10.53636 9.79768,29.48666 25.35678,21.99692 8.667,-9.38249 6.57372,-4.59098 4.74382,-19.69801 6.4266,7.41799 19.97426,18.28232 28.48486,12.97876 8.5107,-5.30355 -6.33412,-18.44587 -5.05352,-20.74364 -2.5603,-6.17159 3.56943,13.02388 17.84324,20.55914 21.5853,7.78686 7.43181,-21.63469 8.39031,-18.7595 z"
         id="path6552"
         inkscape:connector-curvature="0"
         sodipodi:nodetypes="cccczccczccccczccc" />
      <path
         style="fill:#d4bdb7;fill-opacity:1;fill-rule:evenodd;stroke:#000000;stroke-width:1px;stroke-linecap:butt;stroke-linejoin:miter;stroke-opacity:1"
         d="m 588.58669,629.04943 c 2.44597,4.81206 3.16215,10.21623 0.71698,14.62681 -4.10937,11.40787 -26.6795,18.11838 -23.50759,26.64639 8.16489,12.27191 15.01488,21.2648 6.96426,33.03572 10.1422,-2.24344 14.86789,-12.6373 13.21428,-21.42857 12.1961,6.93519 0.50561,23.9707 -4.64282,32.32142 8.36281,-3.35481 15.3608,-6.45098 19.08015,-13.57277 2.57044,-6.14139 3.31419,-13.32246 0.91985,-18.21294 2.52377,1.61018 4.50575,2.20695 4.60731,5.5368 0.10156,3.32985 -1.17363,7.77399 -2.10731,13.57034 7.47879,-5.46644 11.6122,-14.36308 8.57143,-22.67857 -3.81054,-9.00398 -16.049,-11.71283 -24.28571,-11.07191 -2.18739,0.20061 -4.98403,1.31403 -7.51351,1.37866 -2.52948,0.0646 -7.77521,-1.05178 -4.10632,-5.01136 l 19.71469,-20.96352 c 6.36163,-6.37787 -2.64927,-12.22233 -7.62569,-14.1765 z"
         id="path6524"
         inkscape:connector-curvature="0"
         sodipodi:nodetypes="cccccccczccczccc"
         inkscape:export-xdpi="90"
         inkscape:export-ydpi="90" />
      <path
         style="fill:#d4bdb7;fill-opacity:1;fill-rule:evenodd;stroke:#000000;stroke-width:1px;stroke-linecap:butt;stroke-linejoin:miter;stroke-opacity:1"
         d="m 494.90883,629.30305 c -0.14568,4.14776 -1.17195,5.66188 0.5023,8.94893 2.96223,5.81573 10.19342,12.61631 15.84051,16.78541 13.14935,7.88976 19.31213,7.16508 10.25714,23.80231 -3.16144,7.68682 -2.09702,13.19554 1.97148,19.5705 1.28508,1.99546 3.57143,5.17857 3.57143,5.17857 -8.99441,-3.16808 -16.2148,-8.93607 -17.93344,-17.62204 -0.32101,-1.82528 -0.10227,-5.05653 -0.10227,-5.05653 0,0 -1.94109,1.42569 -2.67799,2.4422 -3.88041,10.8595 9.44081,24.66033 16.07084,31.66494 l -8.51388,-3.87778 -4.98734,-2.65147 -4.93854,-3.2193 c -7.17822,-5.41835 -12.93545,-16.08376 -9.60644,-24.33081 0,0 -3.44838,1.62063 -4.0124,2.73429 -0.41675,6.01073 3.10912,11.53171 5.85072,16.67694 -14.85688,-9.15424 -18.6134,-22.38403 -6.47065,-31.76044 4.94556,-3.77712 26.91936,2.32737 27.87548,-1.54849 0.5511,-2.74427 -8.10667,-7.76563 -8.10667,-7.76563 l -11.60318,-9.75514 c 0,0 -6.76913,-5.48293 -8.22968,-8.44661 -1.46054,-2.96368 -3.65099,-6.35572 -2.61452,-8.19842 1.03647,-1.8427 6.38763,-5.28235 7.8571,-3.57143 z"
         id="path6526"
         inkscape:connector-curvature="0"
         sodipodi:nodetypes="cscccccccccccccccccczzc"
         inkscape:export-xdpi="90"
         inkscape:export-ydpi="90" />
      <path
         style="fill:#d4bdb7;fill-opacity:1;fill-rule:evenodd;stroke:#000000;stroke-width:1px;stroke-linecap:butt;stroke-linejoin:miter;stroke-opacity:1"
         d="m 476.37911,520.72981 c 0,0 -5.54305,6.23933 -7.85714,10.71429 -2.31409,4.47495 -5.35714,16.07142 -5.35714,16.07142 -1.42965,6.59157 -2.37898,13.4957 -2.6874,19.99887 -1.37742,23.0952 9.141,48.74623 18.75884,66.07256 -15.73231,-16.05258 -26.38571,-45.97204 -27.5,-66.78571 -0.0465,-6.91298 -0.0249,-17.64244 2.85714,-25 2.882,-7.35756 8.96793,-14.79872 13.15934,-17.93956 4.19141,-3.14085 8.62637,-3.13187 8.62637,-3.13187 z"
         id="path6522"
         inkscape:connector-curvature="0"
         sodipodi:nodetypes="czcccczzcc"
         inkscape:export-xdpi="90"
         inkscape:export-ydpi="90" />
      <path
         inkscape:export-ydpi="90"
         inkscape:export-xdpi="90"
         sodipodi:nodetypes="cccccccccccscccccccc"
         inkscape:connector-curvature="0"
         id="path6574"
         d="M 647.07107,497.12496 C 826.95913,482.60711 884.9206,349.62553 855.95939,202.98281 L 890,264.09449 903.03046,360.15541 C 919.4355,325.32234 940.2236,295.74893 944.04061,245.81022 L 960,294.09449 893.93908,444.19602 C 930.7815,431.82136 948.47196,406.67873 970,384.09449 l -30,70 -90,60 c 31.90699,6.63075 64.50555,7.72891 99.09137,-7.07107 0,0 -41.22171,41.52415 -51.2132,41.11168 l -106.96954,-5.05076 c 22.28698,20.71813 47.36771,33.22403 96.26396,45.95939 l -57.07106,28.08122 -111.11168,-32.02031 c 26.77728,49.37595 56.97353,54.30523 86.26396,71.01016 l -74.34518,27.97969 -74.94924,-45.95939 c 17.07324,-39.88137 3.36667,-130.90625 -8.88832,-141.01014 z"
         style="fill:url(#linearGradient6586);fill-rule:evenodd;stroke:#000000;stroke-width:1px;stroke-linecap:butt;stroke-linejoin:miter;stroke-opacity:1;fill-opacity:1" />
      <path
         inkscape:export-ydpi="90"
         inkscape:export-xdpi="90"
         style="fill:url(#linearGradient6590);fill-opacity:1;fill-rule:evenodd;stroke:#000000;stroke-width:1px;stroke-linecap:butt;stroke-linejoin:miter;stroke-opacity:1"
         d="M 433.27071,497.12496 C 253.38265,482.60711 187.33996,349.62553 216.30117,202.98281 l -34.04061,61.11168 -13.03046,96.06092 C 152.82506,325.32234 132.03696,295.74893 128.21995,245.81022 l -15.95939,48.28427 66.06092,150.10153 C 141.47906,431.82136 123.7886,406.67873 102.26056,384.09449 l 30,70 90,60 c -31.90699,6.63075 -64.50555,7.72891 -99.09137,-7.07107 0,0 41.22171,41.52415 51.2132,41.11168 l 106.96954,-5.05076 c -22.28698,20.71813 -47.36771,33.22403 -96.26396,45.95939 l 57.07106,28.08122 111.11168,-32.02031 c -26.77728,49.37595 -56.97353,54.30523 -86.26396,71.01016 l 74.34518,27.97969 69.40379,-45.72916 22.71805,5.83069 c -9.42861,-22.02428 -21.42012,-50.77679 -19.15833,-82.85714 1.83383,-26.01046 13.46804,-59.68985 18.95527,-64.21392 z"
         id="path6588"
         inkscape:connector-curvature="0"
         sodipodi:nodetypes="cccccccccccsccccccccsc" />
      <path
         inkscape:export-ydpi="90"
         inkscape:export-xdpi="90"
         sodipodi:nodetypes="cccccccccccccccccccccccccccccccccccccccccccccccccccccccccccccccccccccccccccccc"
         inkscape:connector-curvature="0"
         id="path5334"
         d="m 657.05972,499.51225 c 92.18864,6.8658 191.97741,-88.3198 198.77885,-138.71509 l 20.52195,2.10616 12.21085,0.27583 10.3051,12.61325 -15.78233,-2.80135 10.65792,1.77388 4.71584,11.60833 -16.96013,-6.88345 10.36177,4.13928 7.21706,15.40164 -20.36153,-10.6863 10.32615,4.74916 11.33243,20.08524 -23.34045,-18.35222 10.60739,8.81725 7.46012,21.29759 -18.84549,-17.11946 6.58525,5.35397 7.52426,22.78727 -16.42274,-15.222 8.60113,7.66102 c 26.17242,70.53584 1.76056,6.48477 8.53994,25.52347 l -18.90073,-19.79117 8.23894,7.55974 0.96172,21.33245 -12.5249,-15.9369 7.49705,8.21232 3.48027,20.97615 -17.04902,-22.98183 5.34959,6.06262 0.2574,22.04661 -16.12553,-18.6853 7.0563,7.65081 1.03584,19.94598 -15.66222,-18.12277 7.97144,9.29671 -0.63319,20.60519 -18.94863,-22.52468 9.88997,10.58227 2.14513,19.55388 -21.4939,-23.25834 11.04844,11.6478 0.50813,25.91388 -21.84275,-29.84075 11.95606,15.98194 -7.14428,22.1675 -17.05567,-29.48354 7.93969,14.01984 -9.8318,21.01732 -13.24813,-27.254 7.9797,16.54331 -8.11559,18.31452 -13.27628,-27.13721 7.14376,15.45345 -8.4875,22.5799 -12.34018,-33.08367 7.97445,18.56107 -10.35862,18.98512 -12.11987,-33.75845 8.67644,24.27256 c 0.56365,3.66786 -14.76892,14.17167 -11.80456,17.19821 l -8.27596,-35.98556 5.52378,22.02037 -11.30785,19.37026 -4.76009,-35.88883 2.97578,22.44105 -12.04373,19.97225 -2.2881,-36.93395 1.1489,22.21096 -10.49684,19.83782 -1.72809,-39.53974 0.17233,21.27958 -19.47439,27.56903 5.10805,-44.54953 -2.66,24.28786 -15.89808,30.99296 c 5.64931,-35.59236 4.52048,-73.34518 -10.17602,-106.12054 z"
         style="fill:#ffffff;fill-opacity:0.97254902;fill-rule:evenodd;stroke:#000000;stroke-width:1.12931883px;stroke-linecap:butt;stroke-linejoin:miter;stroke-opacity:1" />
      <path
         inkscape:export-ydpi="90"
         inkscape:export-xdpi="90"
         style="fill:#ffffff;fill-opacity:0.97254902;fill-rule:evenodd;stroke:#000000;stroke-width:1.12931883px;stroke-linecap:butt;stroke-linejoin:miter;stroke-opacity:1"
         d="m 419.97256,499.51225 c -92.18864,6.8658 -191.97741,-88.3198 -198.77885,-138.71509 l -20.52195,2.10616 -12.21085,0.27583 -10.3051,12.61325 15.78233,-2.80135 -10.65792,1.77388 -4.71584,11.60833 16.96013,-6.88345 -10.36177,4.13928 -7.21706,15.40164 20.36153,-10.6863 -10.32615,4.74916 -11.33243,20.08524 23.34045,-18.35222 -10.60739,8.81725 -7.46012,21.29759 18.84549,-17.11946 -6.58525,5.35397 -7.52426,22.78727 16.42274,-15.222 -8.60113,7.66102 c -26.17242,70.53584 -1.76056,6.48477 -8.53994,25.52347 l 18.90073,-19.79117 -8.23894,7.55974 -0.96172,21.33245 12.5249,-15.9369 -7.49705,8.21232 -3.48027,20.97615 17.04902,-22.98183 -5.34959,6.06262 -0.2574,22.04661 16.12553,-18.6853 -7.0563,7.65081 -1.03584,19.94598 15.66222,-18.12277 -7.97144,9.29671 0.63319,20.60519 18.94863,-22.52468 -9.88997,10.58227 -2.14513,19.55388 21.4939,-23.25834 -11.04844,11.6478 -0.50813,25.91388 21.84275,-29.84075 -11.95606,15.98194 7.14428,22.1675 17.05567,-29.48354 -7.93969,14.01984 9.8318,21.01732 13.24813,-27.254 -7.9797,16.54331 8.11559,18.31452 13.27628,-27.13721 -7.14376,15.45345 8.4875,22.5799 12.34018,-33.08367 -7.97445,18.56107 10.35862,18.98512 12.11987,-33.75845 -8.67644,24.27256 c -0.56365,3.66786 14.76892,14.17167 11.80456,17.19821 l 8.27596,-35.98556 -5.52378,22.02037 11.30785,19.37026 4.76009,-35.88883 -2.97578,22.44105 12.04373,19.97225 2.2881,-36.93395 -1.1489,22.21096 10.49684,19.83782 1.72809,-39.53974 -0.17233,21.27958 19.47439,27.56903 -5.10805,-44.54953 2.66,24.28786 15.89808,30.99296 c -5.64931,-35.59236 -4.52048,-73.34518 10.17602,-106.12054 z"
         id="path6600"
         inkscape:connector-curvature="0"
         sodipodi:nodetypes="cccccccccccccccccccccccccccccccccccccccccccccccccccccccccccccccccccccccccccccc" />
      <path
         inkscape:export-ydpi="90"
         inkscape:export-xdpi="90"
         sodipodi:nodetypes="cccscccssccc"
         inkscape:connector-curvature="0"
         id="path6602"
         d="m 421.42857,354.27306 c -11.02588,-10 -14.02036,-16.25 -11.78571,-26.25 5.43091,-12.24842 21.30914,-13.05027 35.77031,-13.03572 14.41833,-2.30602 18.26214,-5.08529 30.75072,-13.26117 4.58102,-2.99905 10.76234,-6.28711 18.43256,-11.16721 4.62189,-1.31303 4.44128,-2.62606 15.40355,-3.93909 16.29068,5.19377 13.62138,24.62818 7.02031,36.01015 -2.75803,0.49354 -6.5889,2.61849 -10.75219,5.12671 -2.8003,1.68708 -5.75099,3.54756 -8.62676,5.20164 -6.79824,3.91019 -13.2466,6.58097 -13.71279,6.31469 -10,4.29278 -8.92857,4.95293 -18.92857,4.82143 -14.76659,10.23576 -40.91598,3.57903 -43.57143,10.17857 z"
         style="fill:#940000;fill-opacity:1;fill-rule:evenodd;stroke:#000000;stroke-width:0.2;stroke-linecap:butt;stroke-linejoin:miter;stroke-miterlimit:4;stroke-dasharray:none;stroke-opacity:1" />
      <path
         inkscape:export-ydpi="90"
         inkscape:export-xdpi="90"
         sodipodi:nodetypes="ccc"
         inkscape:connector-curvature="0"
         id="path6616"
         d="m 415,324.80878 c -4.82927,4.86826 -6.8995,15.4738 5,24.28571 0.94766,-8.85007 -11.66554,-10.79788 -5,-24.28571 z"
         style="fill:#ffffff;fill-rule:evenodd;stroke:#000000;stroke-width:0.1;stroke-linecap:butt;stroke-linejoin:miter;stroke-opacity:1;stroke-miterlimit:4;stroke-dasharray:none;fill-opacity:1" />
      <path
         inkscape:export-ydpi="90"
         inkscape:export-xdpi="90"
         sodipodi:nodetypes="cscccc"
         inkscape:connector-curvature="0"
         id="path6618"
         d="m 492.5,293.55877 c 0.34957,-1.76013 3.87051,-2.8666 6.76135,-3.99118 8.19116,-3.18649 21.36442,-2.75304 20.89469,11.46351 0,0 -1.28345,-3.65155 -3.06081,-5.61032 -4.44978,-4.58058 -10.7251,-5.11165 -16.41658,-3.02758 -2.93376,1.11026 -7.77096,2.63175 -8.17865,1.16557 z"
         style="fill:#ffffff;fill-opacity:1;fill-rule:evenodd;stroke:#000000;stroke-width:0.1;stroke-linecap:butt;stroke-linejoin:miter;stroke-miterlimit:4;stroke-dasharray:none;stroke-opacity:1" />
      <path
         inkscape:export-ydpi="90"
         inkscape:export-xdpi="90"
         sodipodi:nodetypes="csccccccc"
         inkscape:connector-curvature="0"
         id="path6620"
         d="m 417.39911,355.73599 c -3.15195,2.05351 -5.55215,3.6831 -7.56923,5.85918 -5.12142,5.52512 -7.91056,12.44567 -9.21584,17.4187 -3.67648,13.22185 6.45014,21.74702 17.997,27.17643 -3.00295,-4.23185 -3.23446,-7.44025 -3.23223,-11.3382 l 3.10596,-9.11611 3.73731,-6.96954 c 5.88333,-10.82905 4.28071,-14.19351 1.6415,-17.44988 -1.35011,-1.85389 -3.17864,-2.80166 -6.46447,-5.58058 z"
         style="fill:#efb410;fill-opacity:0.85144923;fill-rule:evenodd;stroke:#000000;stroke-width:0.1;stroke-linecap:butt;stroke-linejoin:miter;stroke-miterlimit:4;stroke-dasharray:none;stroke-opacity:1" />
      <path
         inkscape:export-ydpi="90"
         inkscape:export-xdpi="90"
         sodipodi:nodetypes="cccsc"
         inkscape:connector-curvature="0"
         id="path6624"
         d="m 403.48477,373.1351 -1.69906,8.81653 c -0.93834,8.65544 3.82135,10.68164 7.20414,15.88017 -3.48602,-20.0632 -0.50289,-14.77467 0.49104,-23.20498 0.33387,-2.83188 -6.33474,2.24912 -5.99612,-1.49172 z"
         style="fill:#ffffff;fill-opacity:1;fill-rule:evenodd;stroke:#000000;stroke-width:0.2;stroke-linecap:butt;stroke-linejoin:miter;stroke-miterlimit:4;stroke-dasharray:none;stroke-opacity:1" />
    </g>
  </g>
</svg>
